<svg id="Layer_1" xmlns="http://www.w3.org/2000/svg" xmlns:xlink="http://www.w3.org/1999/xlink" viewBox="0 0 467.62 478.25"><defs><linearGradient id="linear-gradient" x1="259.87" y1="420.95" x2="275.01" y2="841.29" gradientUnits="userSpaceOnUse"><stop offset="0" stop-opacity="0"/><stop offset="0.99"/></linearGradient><linearGradient id="linear-gradient-2" x1="515.49" y1="372.38" x2="519.18" y2="428.7" gradientTransform="translate(804.69 753.1) rotate(180)" xlink:href="#linear-gradient"/><linearGradient id="linear-gradient-3" x1="518.63" y1="375.01" x2="517.75" y2="334.35" gradientTransform="translate(810.08 734.29) rotate(180)" xlink:href="#linear-gradient"/><linearGradient id="linear-gradient-4" x1="217.87" y1="29.55" x2="219.92" y2="103.42" xlink:href="#linear-gradient"/><linearGradient id="linear-gradient-5" x1="129.99" y1="443.83" x2="128.24" y2="527.66" gradientTransform="translate(259.62 904.45) rotate(180)" xlink:href="#linear-gradient"/><linearGradient id="linear-gradient-6" x1="134.27" y1="422.82" x2="131.65" y2="482.2" gradientTransform="translate(268.21 853.25) rotate(180)" xlink:href="#linear-gradient"/><linearGradient id="linear-gradient-7" x1="139.27" y1="402.67" x2="-45.28" y2="394.23" gradientTransform="translate(259.19 804.45) rotate(180)" xlink:href="#linear-gradient"/><linearGradient id="linear-gradient-8" x1="133.14" y1="386.5" x2="132.36" y2="359.72" gradientTransform="translate(266.14 768.39) rotate(180)" xlink:href="#linear-gradient"/><linearGradient id="linear-gradient-9" x1="130.12" y1="353.26" x2="132.63" y2="469.41" gradientTransform="translate(260.93 738.56) rotate(180)" xlink:href="#linear-gradient"/><linearGradient id="linear-gradient-10" x1="127.36" y1="356.49" x2="127.94" y2="314.29" gradientTransform="translate(254.81 706.23) rotate(180)" xlink:href="#linear-gradient"/><linearGradient id="linear-gradient-11" x1="145.22" y1="356.41" x2="145.79" y2="315.29" gradientTransform="translate(290.53 706.23) rotate(180)" xlink:href="#linear-gradient"/><linearGradient id="linear-gradient-12" x1="126.89" y1="313.24" x2="131.55" y2="384.27" gradientTransform="translate(254.47 637) rotate(180)" xlink:href="#linear-gradient"/><linearGradient id="linear-gradient-13" x1="130.16" y1="315.83" x2="129" y2="261.98" gradientTransform="translate(259.87 610.83) rotate(180)" xlink:href="#linear-gradient"/><linearGradient id="linear-gradient-14" x1="1612.05" y1="443.83" x2="1610.3" y2="527.66" gradientTransform="matrix(-1, 0, 0, 1, 1995.14, -2.21)" xlink:href="#linear-gradient"/><linearGradient id="linear-gradient-15" x1="1616.33" y1="422.82" x2="1613.71" y2="482.2" gradientTransform="matrix(-1, 0, 0, 1, 1995.14, -2.21)" xlink:href="#linear-gradient"/><linearGradient id="linear-gradient-16" x1="1621.33" y1="402.67" x2="1436.78" y2="394.23" gradientTransform="matrix(-1, 0, 0, 1, 1995.14, -2.21)" xlink:href="#linear-gradient"/><linearGradient id="linear-gradient-17" x1="1615.2" y1="386.5" x2="1614.42" y2="359.72" gradientTransform="matrix(-1, 0, 0, 1, 1995.14, -2.21)" xlink:href="#linear-gradient"/><linearGradient id="linear-gradient-18" x1="1612.18" y1="353.26" x2="1614.7" y2="469.41" gradientTransform="matrix(-1, 0, 0, 1, 1995.14, -2.21)" xlink:href="#linear-gradient"/><linearGradient id="linear-gradient-19" x1="1609.42" y1="356.49" x2="1610" y2="314.29" gradientTransform="matrix(-1, 0, 0, 1, 1995.14, -2.21)" xlink:href="#linear-gradient"/><linearGradient id="linear-gradient-20" x1="1627.28" y1="356.41" x2="1627.85" y2="315.29" gradientTransform="matrix(-1, 0, 0, 1, 1995.14, -2.21)" xlink:href="#linear-gradient"/><linearGradient id="linear-gradient-21" x1="1608.95" y1="313.24" x2="1613.61" y2="384.27" gradientTransform="matrix(-1, 0, 0, 1, 1995.14, -2.21)" xlink:href="#linear-gradient"/><linearGradient id="linear-gradient-22" x1="1612.22" y1="315.83" x2="1611.06" y2="261.98" gradientTransform="matrix(-1, 0, 0, 1, 1995.14, -2.21)" xlink:href="#linear-gradient"/><linearGradient id="linear-gradient-23" x1="269.68" y1="195.7" x2="288.55" y2="195.7" gradientUnits="userSpaceOnUse"><stop offset="0" stop-color="#ecc4d7"/><stop offset="0.42" stop-color="#efd4d1"/><stop offset="1" stop-color="#f2eac9"/></linearGradient><linearGradient id="linear-gradient-24" x1="289.67" y1="131.82" x2="159.26" y2="349.26" xlink:href="#linear-gradient"/><linearGradient id="linear-gradient-25" x1="186.8" y1="109.67" x2="406.28" y2="192.92" xlink:href="#linear-gradient"/><linearGradient id="linear-gradient-26" x1="245.27" y1="53.1" x2="248.18" y2="108.98" gradientUnits="userSpaceOnUse"><stop offset="0" stop-color="#fff" stop-opacity="0"/><stop offset="0.99" stop-color="#fff"/></linearGradient><linearGradient id="linear-gradient-27" x1="297.58" y1="102.38" x2="144.75" y2="188.25" xlink:href="#linear-gradient"/><linearGradient id="linear-gradient-28" x1="338.81" y1="129.83" x2="348.28" y2="129.83" gradientTransform="matrix(1.24, -0.03, -0.03, 1.3, -197.83, 14.49)" xlink:href="#linear-gradient-23"/><linearGradient id="linear-gradient-29" x1="273.2" y1="140.45" x2="291.01" y2="140.45" xlink:href="#linear-gradient-23"/><linearGradient id="linear-gradient-30" x1="225.48" y1="81.36" x2="268.38" y2="81.36" xlink:href="#linear-gradient-26"/><linearGradient id="linear-gradient-31" x1="245.7" y1="58.72" x2="247.93" y2="79.39" xlink:href="#linear-gradient-26"/><linearGradient id="linear-gradient-32" x1="245.39" y1="59.55" x2="246.41" y2="96.09" xlink:href="#linear-gradient-26"/><linearGradient id="linear-gradient-33" x1="1726.93" y1="449.17" x2="1725.18" y2="533.01" gradientTransform="matrix(-1, 0, 0, 1, 1995.14, -2.21)" xlink:href="#linear-gradient"/><linearGradient id="linear-gradient-34" x1="1731.22" y1="428.16" x2="1728.6" y2="487.55" gradientTransform="matrix(-1, 0, 0, 1, 1995.14, -2.21)" xlink:href="#linear-gradient"/><linearGradient id="linear-gradient-35" x1="1736.21" y1="408.02" x2="1551.66" y2="399.57" gradientTransform="matrix(-1, 0, 0, 1, 1995.14, -2.21)" xlink:href="#linear-gradient"/><linearGradient id="linear-gradient-36" x1="1730.08" y1="391.84" x2="1729.31" y2="365.06" gradientTransform="matrix(-1, 0, 0, 1, 1995.14, -2.21)" xlink:href="#linear-gradient"/><linearGradient id="linear-gradient-37" x1="261.11" y1="178.09" x2="145.26" y2="454.62" xlink:href="#linear-gradient"/></defs><title>Book for Education </title><path d="M493.28,263.41c-2.2,27.2-.46,54.63-2.92,81.81s-9.67,55-27.21,75.89a104.15,104.15,0,0,1-32.45,25.27c-14.5,7.46-30.63,12.24-46.71,15-29.79,5.17-60.25,4.38-90.39,6.77-40.88,3.23-81.33,12.31-122.34,12.27-27.26,0-55.57-4.75-79.76-16.67a114.13,114.13,0,0,1-32.8-23.85c-31.59-33.39-37.58-85.89-21.93-129.1,15.17-41.88,48.66-79.07,47-123.59-1-26-14.17-52.42-6.06-77.19,3.22-9.78,9.57-18.3,17-25.42C126.08,54.56,173,49.3,212.89,32.21c16.58-7.09,30.35-20,46.57-26.92,12-5.1,27.76-2.79,40.25-.75C332,9.82,362.53,26.6,383.62,51.74c8.29,9.9,15.32,21.32,17.43,34.06,1.28,7.73.75,15.91,3.89,23.09s9.37,12.23,15.41,17.09l31.13,25c15.77,12.69,32.19,26.22,39.66,45C499.51,217.15,495.11,240.79,493.28,263.41Z" transform="translate(-28.46 -2.21)" fill="#3780b6" opacity="0.18" style="isolation:isolate"/><path d="M430.7,446.38c-14.5,7.46-30.63,12.24-46.71,15-29.79,5.17-60.25,4.38-90.39,6.77-40.88,3.23-81.33,12.31-122.34,12.27-27.26,0-55.57-4.75-79.76-16.67,17.75-15.72,48.81-14.47,70.68-17.59,33.76-4.81,67.6-9.38,101.63-11.89C319.7,430.17,376.73,431.7,430.7,446.38Z" transform="translate(-28.46 -2.21)" fill="url(#linear-gradient)"/><rect x="244.82" y="370.79" width="88.22" height="11.53" transform="translate(549.4 750.9) rotate(-180)" fill="#3780b6"/><rect x="244.82" y="370.79" width="88.22" height="11.53" transform="translate(549.4 750.9) rotate(-180)" fill="url(#linear-gradient-2)"/><rect x="280.27" y="371.72" width="52.7" height="9.78" transform="translate(584.78 751.02) rotate(-180)" fill="#fff"/><rect x="256.27" y="363.44" width="70.71" height="7.4" transform="translate(554.78 732.08) rotate(-180)" fill="#3780b6"/><rect x="256.27" y="363.44" width="70.71" height="7.4" transform="translate(554.78 732.08) rotate(-180)" fill="url(#linear-gradient-3)"/><rect x="294.44" y="363.32" width="32.53" height="7.52" transform="translate(592.96 731.96) rotate(-180)" fill="#fff"/><rect x="245.16" y="355.37" width="88.89" height="8.01" transform="translate(550.74 716.54) rotate(-180)" fill="#3780b6"/><rect x="301.45" y="356.9" width="34.09" height="4.55" transform="translate(608.53 716.14) rotate(-180)" fill="#fff"/><path d="M257.92,305c.11,6.43,5.23,33.44,5.24,39.88,0,4.23-4.76,4.13-7.57,5.72-1.47.83-3.59,3.4-2.14,4.56,4.05.21,13.62-.11,17.66.1.85,0-4-36.52-.68-46.48,2-6,28.32-24.85,26.2-30.56-.6-1.63,4.51-12.19.88-12.23-8.54-.1-17.31.9-20.14,1.85C277.37,267.85,257.75,295.51,257.92,305Z" transform="translate(-28.46 -2.21)" fill="#3f3d56"/><path d="M293.14,266.14a6.22,6.22,0,0,0-3.9,1.21c-1.6,1.5-1.18,4.11-.62,6.23,1.75,6.68,4.42,22,9.76,39.58,5.58,18.37,13.83,38.87,14.35,40.39.23.69.16,1.17.75,1.6s15.55.22,15.68,0c0,0,1.24-3.31-3.52-5.15-1.23-.48-4.58.35-5.14-1.36-4.81-14.66-6.8-46.62-6.26-52.54.68-7.44,3.24-26.45-1.6-30.42C307.34,265.46,298.46,265.74,293.14,266.14Z" transform="translate(-28.46 -2.21)" fill="#3f3d56"/><polygon points="220.09 63.69 216.02 63.69 216.02 11.42 220.09 8.38 220.09 63.69" fill="#3780b6"/><polygon points="220.09 63.69 216.02 63.69 216.02 11.69 220.09 8.65 220.09 63.69" fill="url(#linear-gradient-4)"/><rect x="72.22" y="440.82" width="115.19" height="22.82" transform="translate(231.16 902.25) rotate(-180)" fill="#3780b6"/><rect x="72.22" y="440.82" width="115.19" height="22.82" transform="translate(231.16 902.25) rotate(-180)" fill="url(#linear-gradient-5)"/><rect x="72.42" y="444.4" width="41.41" height="14.94" transform="translate(157.79 901.53) rotate(-180)" fill="#fff"/><rect x="67.44" y="412.41" width="133.33" height="28.44" transform="translate(239.75 851.05) rotate(-180)" fill="#3780b6"/><rect x="67.44" y="412.41" width="133.33" height="28.44" transform="translate(239.75 851.05) rotate(-180)" fill="url(#linear-gradient-6)"/><rect x="128.86" y="416.18" width="71.66" height="20.88" transform="translate(300.93 851.03) rotate(-180)" fill="#fff"/><rect x="72.65" y="391.9" width="113.88" height="20.65" transform="translate(230.73 802.25) rotate(-180)" fill="#3780b6"/><rect x="72.65" y="391.9" width="113.88" height="20.65" transform="translate(230.73 802.25) rotate(-180)" fill="url(#linear-gradient-7)"/><rect x="117.86" y="394.14" width="68.68" height="16.44" transform="translate(275.94 802.51) rotate(-180)" fill="#fff"/><rect x="87.43" y="376.45" width="91.28" height="15.5" transform="translate(237.68 766.19) rotate(-180)" fill="#3780b6"/><rect x="87.43" y="376.45" width="91.28" height="15.5" transform="translate(237.68 766.19) rotate(-180)" fill="url(#linear-gradient-8)"/><rect x="136.71" y="377.3" width="42" height="13.47" transform="translate(286.96 765.87) rotate(-180)" fill="#fff"/><rect x="73.09" y="362.11" width="114.75" height="14.34" transform="translate(232.47 736.35) rotate(-180)" fill="#3780b6"/><rect x="73.09" y="362.11" width="114.75" height="14.34" transform="translate(232.47 736.35) rotate(-180)" fill="url(#linear-gradient-9)"/><rect x="145.76" y="364.85" width="42.03" height="8.15" transform="translate(305.09 735.65) rotate(-180)" fill="#fff"/><rect x="82.68" y="344.25" width="89.46" height="17.72" transform="translate(226.35 704.03) rotate(-180)" fill="#3780b6"/><rect x="82.68" y="344.25" width="89.46" height="17.72" transform="translate(226.35 704.03) rotate(-180)" fill="url(#linear-gradient-10)"/><rect x="118.39" y="344.25" width="53.74" height="17.72" transform="translate(262.07 704.03) rotate(-180)" fill="url(#linear-gradient-11)"/><rect x="82.83" y="347.42" width="32.16" height="11.6" transform="translate(169.36 704.24) rotate(-180)" fill="#fff"/><rect x="78.96" y="326.59" width="103.55" height="17.72" transform="translate(233.02 668.7) rotate(-180)" fill="#3780b6"/><rect x="126.67" y="328.49" width="52.83" height="14.28" transform="translate(277.71 669.06) rotate(-180)" fill="#fff"/><rect x="83.01" y="310.48" width="88.45" height="16.04" transform="translate(226.01 634.8) rotate(-180)" fill="#3780b6"/><rect x="83.01" y="310.48" width="88.45" height="16.04" transform="translate(226.01 634.8) rotate(-180)" fill="url(#linear-gradient-12)"/><rect x="118.56" y="311.79" width="52.83" height="13.6" transform="translate(261.49 634.96) rotate(-180)" fill="#fff"/><rect x="94.49" y="300.27" width="70.89" height="10.3" transform="translate(231.41 608.63) rotate(-180)" fill="#3780b6"/><rect x="94.49" y="300.27" width="70.89" height="10.3" transform="translate(231.41 608.63) rotate(-180)" fill="url(#linear-gradient-13)"/><rect x="132.76" y="300.1" width="32.62" height="10.46" transform="translate(269.69 608.46) rotate(-180)" fill="#fff"/><rect x="83.35" y="289.04" width="89.12" height="11.14" transform="translate(227.36 587) rotate(-180)" fill="#3780b6"/><rect x="139.79" y="291.17" width="34.18" height="6.33" transform="translate(285.3 586.46) rotate(-180)" fill="#fff"/><rect x="325.68" y="438.61" width="115.19" height="22.82" fill="#3780b6"/><rect x="325.68" y="438.61" width="115.19" height="22.82" fill="url(#linear-gradient-14)"/><rect x="399.26" y="442.19" width="41.41" height="14.94" fill="#fff"/><rect x="312.31" y="410.2" width="133.33" height="28.44" fill="#3780b6"/><rect x="312.31" y="410.2" width="133.33" height="28.44" fill="url(#linear-gradient-15)"/><rect x="312.56" y="413.97" width="71.66" height="20.88" fill="#fff"/><rect x="326.55" y="389.7" width="113.88" height="20.65" fill="#3780b6"/><rect x="326.55" y="389.7" width="113.88" height="20.65" fill="url(#linear-gradient-16)"/><rect x="326.54" y="391.93" width="68.68" height="16.44" fill="#fff"/><rect x="334.37" y="374.24" width="91.28" height="15.5" fill="#3780b6"/><rect x="334.37" y="374.24" width="91.28" height="15.5" fill="url(#linear-gradient-17)"/><rect x="334.37" y="375.09" width="42" height="13.47" fill="#fff"/><rect x="325.24" y="359.9" width="114.75" height="14.34" fill="#3780b6"/><rect x="325.24" y="359.9" width="114.75" height="14.34" fill="url(#linear-gradient-18)"/><rect x="325.29" y="362.65" width="42.03" height="8.15" fill="#fff"/><rect x="340.95" y="342.05" width="89.46" height="17.72" fill="#3780b6"/><rect x="340.95" y="342.05" width="89.46" height="17.72" fill="url(#linear-gradient-19)"/><rect x="340.95" y="342.05" width="53.74" height="17.72" fill="url(#linear-gradient-20)"/><rect x="398.09" y="345.22" width="32.16" height="11.6" fill="#fff"/><rect x="330.57" y="324.39" width="103.55" height="17.72" fill="#3780b6"/><rect x="333.59" y="326.29" width="52.83" height="14.28" fill="#fff"/><rect x="341.62" y="308.28" width="88.45" height="16.04" fill="#3780b6"/><rect x="341.62" y="308.28" width="88.45" height="16.04" fill="url(#linear-gradient-21)"/><rect x="341.69" y="309.58" width="52.83" height="13.6" fill="#fff"/><rect x="347.7" y="298.06" width="70.89" height="10.3" fill="#3780b6"/><rect x="347.7" y="298.06" width="70.89" height="10.3" fill="url(#linear-gradient-22)"/><rect x="347.7" y="297.89" width="32.62" height="10.46" fill="#fff"/><rect x="340.61" y="286.83" width="89.12" height="11.14" fill="#3780b6"/><rect x="339.11" y="288.96" width="34.18" height="6.33" fill="#fff"/><path d="M272.28,271.05c.49,4.12,15.81-.73,17.2-.82,3.07-.2,24.26,1,27-.35,6.47-3.07-10.34-57.55-14.42-60-3.82-2.29-8.48-2.76-12.94-2.65-9.34.24-17.1,4.9-19.71,14.36-1.08,3.91.79,7.93,1.82,11.66C272.76,238.62,271.62,265.51,272.28,271.05Z" transform="translate(-28.46 -2.21)" fill="#3780b6"/><path d="M278,205.47c-1.26-2.62-4.72-3.35-6.57-5.6-1.71-2.05-1.76-5-1.67-7.65.12-3.52.38-7.18,2.17-10.22s5.58-5.17,8.88-4a10.67,10.67,0,0,1,3.92,3,14.67,14.67,0,0,1,3.3,4.75c1,2.74.52,5.8-.31,8.59s-2,5.52-2.32,8.42c-.22,2.09,0,4.24-.44,6.3s-1.78,4.16-3.85,4.56C277.51,214.35,278.89,207.43,278,205.47Z" transform="translate(-28.46 -2.21)" fill="url(#linear-gradient-23)"/><path d="M275.63,229.36c.07,1.39.05,3-1,3.92a3.65,3.65,0,0,1-1.94.76c-3.89.55-44.71-28.12-49.61-49-.18-.75,2.66-2.86,4.89-3.55,1.09-.33,2-.33,2.43.32,15.89,25.63,43,28.6,45.85,29.81a3,3,0,0,1,1.58,2.74C278.29,218.49,275.48,226,275.63,229.36Z" transform="translate(-28.46 -2.21)" fill="#3780b6"/><path d="M298.91,127.1a50,50,0,1,1-3.72-19A50.1,50.1,0,0,1,298.91,127.1Z" transform="translate(-28.46 -2.21)" fill="#3780b6"/><path d="M273.38,145.51a50.36,50.36,0,0,1,.79,7.12c-.06,4.63-2.15,9-5,12.68a63.46,63.46,0,0,1-10.05,9.53c3.64.8,7.43-.31,10.81-1.86a43,43,0,0,0,19.69-18.33,2.92,2.92,0,0,0,.51-2,3.21,3.21,0,0,0-.78-1.26c-2.53-3.12-3.59-7.17-5.55-10.68-1.39-2.47-5.52-7.48-9-5.9C271.56,136.26,273,142.69,273.38,145.51Z" transform="translate(-28.46 -2.21)" fill="url(#linear-gradient-24)"/><path d="M286.53,203.12a2.37,2.37,0,0,0,2-.84c.51-.54.88-1.2,1.36-1.76a23.77,23.77,0,0,1,3.58-2.8,10.52,10.52,0,0,0,3.5-5.14A2.27,2.27,0,0,0,297,191a3.94,3.94,0,0,0-1.05-1.15c-1.21-1.19-1.39-3-1.6-4.75s-.63-3.57-2.09-4.47a9,9,0,0,0-.4-4.37,3.12,3.12,0,0,0-3.55-1.94,1.36,1.36,0,0,1-.52.12c-.46,0-.63-.61-.76-1.06a5.08,5.08,0,0,0-7.41-3.11,10,10,0,0,1-1.24.69c-1,.36-2.09.05-3.14.14-1.85.15-3.34,1.52-4.61,2.87a3,3,0,0,1-1,.82,3.23,3.23,0,0,1-1.12.15c-1.53,0-3.36.54-3.76,2a3,3,0,0,0,.11,1.69,6.38,6.38,0,0,0,5.87,4.36c1.25,0,2.27-.87,3.39-1.42a1.29,1.29,0,0,1,.53-.18,1.53,1.53,0,0,1,.66.16c2.15.81,4.53.44,6.82.31a3.32,3.32,0,0,1,1.47.14,2.72,2.72,0,0,1,1.14,1c1.81,2.44,1.36,5.81.83,8.81a2.49,2.49,0,0,0,1.86-.5,2.93,2.93,0,0,1-1.44,4.19,2.16,2.16,0,0,0-.86.38,1.41,1.41,0,0,0-.34.73A8.68,8.68,0,0,0,286.53,203.12Z" transform="translate(-28.46 -2.21)" fill="#3f3d56"/><path d="M241.66,145a30.65,30.65,0,0,1-1.63,9c-1.09,2.79-3,5.32-3.3,8.31-.14,1.43.12,2.88,0,4.31a4.14,4.14,0,0,1-2.07,3.55,3.81,3.81,0,0,1-4.13-1.24,15.12,15.12,0,0,1-2.22-4,27.29,27.29,0,0,0-5.12-7.49,78.25,78.25,0,0,1-5.52-5.56c-1.61-2-2.75-4.68-2.22-7.25.34-1.64,1.34-3.24,1-4.89a8.47,8.47,0,0,0-1.29-2.54,10.31,10.31,0,0,1-.31-9.71c.92-1.82,2.44-3.52,2.31-5.56a7.36,7.36,0,0,0-.56-2.09c-.75-2-1.91-4.24-4-4.38-1.78-.13-3.17,1.39-4.66,2.37s-4.09,1-4.47-.72a70.82,70.82,0,0,1-1.46-8,50.32,50.32,0,0,1,25.34-27.37,12,12,0,0,1,3.38,4.81c-4.54,4.87-4.79,12.5-8.85,17.76-1.31,1.71-3,3.12-4.16,4.93s-1.7,4.25-.55,6.06c1.94,3.08,6.66,2,10,3.53,2.17,1,3.9,3.09,6.28,3.24,1.27.07,2.55-.45,3.79-.17,1.77.39,2.77,2.24,3.35,4C242.64,132,242.16,138.59,241.66,145Z" transform="translate(-28.46 -2.21)" fill="url(#linear-gradient-25)"/><path d="M243.06,57.9a51.1,51.1,0,0,1,12.68,1.64,7.86,7.86,0,0,1,3.87,1.88,3,3,0,0,1,.37,3.94,4.28,4.28,0,0,1,3.65,6.79,7.91,7.91,0,0,1,4.42,4.21,4.69,4.69,0,0,1-.08,4.4c-1.35,2-4.28,1.91-6.69,1.67a93.1,93.1,0,0,0-29.72,1.91c-2.18.5-4.95.88-6.24-1-1.45-2.06.37-4.78,2.09-6.61-1.59.19-2.83-1.67-2.57-3.26a6.23,6.23,0,0,1,2.81-3.74,17,17,0,0,0,3.71-3c-1.61-.13-2.5-2.21-1.88-3.7C231,59.33,239.72,57.89,243.06,57.9Z" transform="translate(-28.46 -2.21)" fill="#3780b6"/><path d="M268.38,79.88a3.06,3.06,0,0,1-.41.88c-1.35,2-4.28,1.91-6.69,1.68a92.81,92.81,0,0,0-29.72,1.9c-2.11.47-4.76.85-6.08-.77a1.29,1.29,0,0,1-.16-.18c-1.44-2.06.37-4.79,2.09-6.62-1.59.19-2.83-1.67-2.57-3.26a6.27,6.27,0,0,1,2.81-3.75,16.69,16.69,0,0,0,3.7-3c-1.6-.13-2.49-2.21-1.87-3.7,1.54-3.71,10.24-5.15,13.58-5.14a50.9,50.9,0,0,1,12.69,1.64,7.79,7.79,0,0,1,3.86,1.88,3,3,0,0,1,.37,3.94,4.28,4.28,0,0,1,3.66,6.79,8,8,0,0,1,4.41,4.21A5.24,5.24,0,0,1,268.38,79.88Z" transform="translate(-28.46 -2.21)" fill="url(#linear-gradient-26)"/><path d="M298,182.38c-2.32-10.91-11-19.46-14.1-30.18-.13-.47-1.61-2.81-1.36-3.22.54-.84,7-4.58,7.73-3.94,9.13,7.79,12.08,18.15,17.27,29s7.11,41.39,1.2,51.83c-1.43,2.54-2.5-7.64-5.41-7.83-7.22-.48-8.95-6.79-7.71-12.26C297.35,197.92,299.7,190.5,298,182.38Z" transform="translate(-28.46 -2.21)" fill="#3780b6"/><path d="M295.19,108.12c-.07.23-.13.47-.19.71a4.25,4.25,0,0,1-3.31,2.9,12.35,12.35,0,0,1-4.61-.14c-.37,5,4.42,9.43,3.37,14.29-.85,3.89-5.08,6.1-6.76,9.72-.56,1.23-.82,2.59-1.49,3.77-1.42,2.49-4.34,3.65-7,4.63a3.86,3.86,0,0,1-1.93.35,4,4,0,0,1-2.07-1.33,38.79,38.79,0,0,1-6.42-7.54,13.16,13.16,0,0,1-1.91-9.49c.44-1.92,1.44-3.67,2.05-5.54s.76-4.08-.38-5.68c-.52-.73-1.28-1.27-1.78-2a2,2,0,0,1,0-2.48,2.67,2.67,0,0,1,1.52-.54l7.39-1a7.09,7.09,0,0,0,3.88-1.35c1-.94,1.25-2.86.08-3.61A26.47,26.47,0,0,1,265.11,108c-1.19-2.71-2.39-5.85-1.19-8.57A10.89,10.89,0,0,1,265.65,97q4.83-5.7,9.65-11.4A2.44,2.44,0,0,1,276,85,50.1,50.1,0,0,1,295.19,108.12Z" transform="translate(-28.46 -2.21)" fill="url(#linear-gradient-27)"/><path d="M218.32,173.62a37.8,37.8,0,0,0,2.82,8.3,26.82,26.82,0,0,0,2.94,2.79c.91.8,2.64-.61,3.64-1.38,2.25-1.74,1.1-7.19,2-10-1.65-1.09-2.92-.13-4.51-1.31a5.92,5.92,0,0,1-2.47-3,6.37,6.37,0,0,0-.3-1.18,3.13,3.13,0,0,0-.72-.89c-.42-.4-1.6-2-2.19-1.86s-1,2-1.08,2.55A13.45,13.45,0,0,0,218.32,173.62Z" transform="translate(-28.46 -2.21)" fill="url(#linear-gradient-28)"/><path d="M289.92,135.94c-.21-.43-.62-.91-1.07-.74a1,1,0,0,0-.47.55l-1.7,3.34-2.87-5.24c-.86-1.57-1.91-3.3-3.65-3.73a.68.68,0,0,0-.61.06c-.23.19-.15.55-.06.84l.71,2.08a10.2,10.2,0,0,0-5.74-2.17,1.31,1.31,0,0,0-1.08.3c-.35.4-.13,1,.1,1.48q1.17,2.32,2.5,4.54c-.28-.57-1.24-.35-1.5.22a2.41,2.41,0,0,0,.17,1.83,28.2,28.2,0,0,0,7.51,10.92c.42.38,1,.76,1.5.54a1.72,1.72,0,0,0,.7-.92,8,8,0,0,1,3.19-3.46C291.31,144.19,291.86,139.9,289.92,135.94Z" transform="translate(-28.46 -2.21)" fill="url(#linear-gradient-29)"/><path d="M268.49,80.46a7.08,7.08,0,0,1-.34,1.17c-.12.48-.09,1-.18,1.46a4.51,4.51,0,0,1-3.14,3,18,18,0,0,1-5.28.78c-3.72.2-7.45.39-11.17.56a66.45,66.45,0,0,1-7.6.06c-2.18-.15-4.34-.52-6.52-.48-2.51,0-5.23.57-7.32-.79a3.18,3.18,0,0,1-1.43-1.83,2.07,2.07,0,0,1,0-.86c1.32,1.62,4,1.24,6.08.77a92.81,92.81,0,0,1,29.72-1.9c2.41.23,5.34.34,6.69-1.68a3.06,3.06,0,0,0,.41-.88A1,1,0,0,1,268.49,80.46Z" transform="translate(-28.46 -2.21)" fill="none"/><path d="M268.38,79.88a3.06,3.06,0,0,1-.41.88c-1.35,2-4.28,1.91-6.69,1.68a92.81,92.81,0,0,0-29.72,1.9c-2.11.47-4.76.85-6.08-.77a1.79,1.79,0,0,1,.73-1.26,3.19,3.19,0,0,1,.89-.38,86.29,86.29,0,0,1,13.11-3.34,62.87,62.87,0,0,1,6.43-.54C248.42,78,250.21,78,252,78q4.66.06,9.32.52c1.53.15,3.07.34,4.59.56C266.65,79.16,268,79.12,268.38,79.88Z" transform="translate(-28.46 -2.21)" fill="url(#linear-gradient-30)"/><path d="M240.29,66.38l16.58,0a5.18,5.18,0,0,0,3.14-.66,1.42,1.42,0,0,0,.55-1.84,1.81,1.81,0,0,0-.92-.56c-4.77-1.7-10-1.67-15-1.37a29.3,29.3,0,0,0-7,1c-1.44.44-5.23,1.82-5.44,3.58,1.09.27,2.73-.16,3.91-.2C237.46,66.38,238.88,66.38,240.29,66.38Z" transform="translate(-28.46 -2.21)" fill="url(#linear-gradient-31)"/><path d="M240,73.57c2.53-.35,5.08-.46,7.63-.57,4.52-.2,9-.39,13.57-.34a4.11,4.11,0,0,0,2-.3,1.4,1.4,0,0,0,.77-1.67c-.29-.68-1.18-.82-1.92-.86a146,146,0,0,0-18.59.19,35.65,35.65,0,0,0-5.45.71,41.77,41.77,0,0,0-9.14,3.69c-.73.36-2.16,1.27-.83,1.86,1,.42,2.84-.61,3.78-.88A57.47,57.47,0,0,1,240,73.57Z" transform="translate(-28.46 -2.21)" fill="url(#linear-gradient-32)"/><rect x="210.8" y="443.96" width="115.19" height="22.82" fill="#3780b6"/><rect x="210.8" y="443.96" width="115.19" height="22.82" fill="url(#linear-gradient-33)"/><rect x="284.37" y="447.54" width="41.41" height="14.94" fill="#fff"/><rect x="197.43" y="415.55" width="133.33" height="28.44" fill="#3780b6"/><rect x="197.43" y="415.55" width="133.33" height="28.44" fill="url(#linear-gradient-34)"/><rect x="197.67" y="419.32" width="71.66" height="20.88" fill="#fff"/><rect x="211.67" y="395.05" width="113.88" height="20.65" fill="#3780b6"/><rect x="211.67" y="395.05" width="113.88" height="20.65" fill="url(#linear-gradient-35)"/><rect x="211.66" y="397.28" width="68.68" height="16.44" fill="#fff"/><rect x="219.49" y="379.59" width="91.28" height="15.5" fill="#3780b6"/><rect x="219.49" y="379.59" width="91.28" height="15.5" fill="url(#linear-gradient-36)"/><rect x="219.49" y="380.44" width="42" height="13.47" fill="#fff"/><path d="M277.84,214.31c-.87.93-2.5,1.09-3.87,1-12.34-.75-23.32-8-32.49-16.32a152.27,152.27,0,0,1-11.2-11.24c-1.21-1.34-3.31-2.83-3-4.81a2.91,2.91,0,0,1,.71-1.51c1.09-.33,2-.33,2.43.32,15.89,25.63,43,28.6,45.85,29.81A3,3,0,0,1,277.84,214.31Z" transform="translate(-28.46 -2.21)" fill="url(#linear-gradient-37)"/></svg>
