<svg id="Layer_1" xmlns="http://www.w3.org/2000/svg" xmlns:xlink="http://www.w3.org/1999/xlink" viewBox="0 0 521.27 419.46"><defs><linearGradient id="linear-gradient" x1="335.42" y1="163.77" x2="369.65" y2="163.77" gradientUnits="userSpaceOnUse"><stop offset="0" stop-color="#010101" stop-opacity="0"/><stop offset="0.95" stop-color="#010101"/></linearGradient><linearGradient id="linear-gradient-2" x1="414.41" y1="140.87" x2="445.57" y2="140.87" gradientUnits="userSpaceOnUse"><stop offset="0" stop-color="#e4c5d5"/><stop offset="0.42" stop-color="#e9d3cf"/><stop offset="1" stop-color="#efe8ca"/></linearGradient><linearGradient id="linear-gradient-3" x1="402.02" y1="159.67" x2="426.78" y2="140.57" xlink:href="#linear-gradient"/><linearGradient id="linear-gradient-4" x1="412.09" y1="129.7" x2="412.09" y2="140.18" xlink:href="#linear-gradient-2"/><linearGradient id="linear-gradient-5" x1="415.06" y1="136.09" x2="416.19" y2="144.91" xlink:href="#linear-gradient-2"/><linearGradient id="linear-gradient-6" x1="419.49" y1="141.43" x2="420.62" y2="150.25" xlink:href="#linear-gradient-2"/><linearGradient id="linear-gradient-7" x1="424.59" y1="146.35" x2="425.72" y2="155.17" xlink:href="#linear-gradient-2"/><linearGradient id="linear-gradient-8" x1="447.21" y1="123.7" x2="415" y2="132.6" xlink:href="#linear-gradient-2"/><linearGradient id="linear-gradient-9" x1="392.31" y1="164.4" x2="454.79" y2="103.21" xlink:href="#linear-gradient"/><linearGradient id="linear-gradient-10" x1="331.12" y1="170.57" x2="338.8" y2="170.57" gradientTransform="translate(434.31 -191.95) rotate(78.34)" xlink:href="#linear-gradient"/><linearGradient id="linear-gradient-11" x1="367.68" y1="107.7" x2="354.09" y2="200.2" xlink:href="#linear-gradient"/><linearGradient id="linear-gradient-12" x1="269.7" y1="329.11" x2="273.58" y2="607.51" xlink:href="#linear-gradient"/><linearGradient id="linear-gradient-13" x1="283.42" y1="249.7" x2="255.9" y2="282.08" xlink:href="#linear-gradient"/><linearGradient id="linear-gradient-14" x1="227.65" y1="248.15" x2="251.69" y2="270.49" xlink:href="#linear-gradient"/><linearGradient id="linear-gradient-15" x1="279.2" y1="320.56" x2="249.42" y2="352.77" xlink:href="#linear-gradient"/><linearGradient id="linear-gradient-16" x1="229.11" y1="330.61" x2="256.47" y2="347.76" xlink:href="#linear-gradient"/><linearGradient id="linear-gradient-17" x1="239.02" y1="283.69" x2="247.6" y2="284.02" xlink:href="#linear-gradient"/><linearGradient id="linear-gradient-18" x1="262.47" y1="377.78" x2="215.21" y2="373.9" xlink:href="#linear-gradient"/><linearGradient id="linear-gradient-19" x1="355.79" y1="295.96" x2="338.18" y2="316.67" xlink:href="#linear-gradient"/><linearGradient id="linear-gradient-20" x1="320.11" y1="294.97" x2="335.48" y2="309.26" xlink:href="#linear-gradient"/><linearGradient id="linear-gradient-21" x1="353.09" y1="341.3" x2="334.03" y2="361.91" xlink:href="#linear-gradient"/><linearGradient id="linear-gradient-22" x1="321.04" y1="347.72" x2="338.54" y2="358.7" xlink:href="#linear-gradient"/><linearGradient id="linear-gradient-23" x1="324.24" y1="310.15" x2="329.73" y2="310.36" xlink:href="#linear-gradient"/><linearGradient id="linear-gradient-24" x1="343.15" y1="377.46" x2="308.68" y2="376.49" xlink:href="#linear-gradient"/></defs><title>Saving 2</title><path d="M436.9,51.91c-11.06-9-22.27-16-31.66-17.2l-56.06-7.15c-48.11-6.14-98-12.13-144.26,2.58-56.49,18-101.48,68.14-113.21,126.25-3.53,17.46-4.28,35.53-9.77,52.48C73.71,234.27,55.62,255,40.42,277,25,299.26,12,324.18,9.21,351.17s6.3,56.33,28,72.58,51.06,16.8,78.21,16.65c108.61-.59,220.6,2.51,328.58-7,25.2-2.24,51.87-8.77,68.71-27.65,21.45-24.07,20.46-61.09,10.37-91.71s-27.78-58.42-36.63-89.42a166.53,166.53,0,0,1-4.43-70.8c3-19.6,11.3-46-4.49-62.42C468,81.42,452.59,64.66,436.9,51.91Z" transform="translate(-8.73 -20.98)" fill="#3780b6" opacity="0.24" style="isolation:isolate"/><polygon points="363.26 157.12 336.31 149.83 334.85 154.69 369.08 177.03 363.26 157.12" fill="#3780b6"/><polygon points="363.82 157.46 336.87 150.17 335.42 155.03 369.65 177.36 363.82 157.46" opacity="0.37" fill="url(#linear-gradient)"/><path d="M434.38,150.38c-1.58,1.25-3.1,2.78-5.08,3.18-2.89.58-5.62-1.44-7.77-3.47-2.9-2.74-5.65-5.9-6.72-9.75s0-8.53,3.32-10.71c2.19-1.41,4.95-1.56,7.56-1.56a87.83,87.83,0,0,1,13.74,1.14,8.8,8.8,0,0,1,3.07.91c3.36,1.94,3.68,6.7,2.31,9.86C442.61,145.09,438.52,147.1,434.38,150.38Z" transform="translate(-8.73 -20.98)" fill="url(#linear-gradient-2)"/><path d="M396.39,136.34s4.22-9.49,14.31-7.54,20.53,20.77,16.64,30.6a101.28,101.28,0,0,1-8.74,17.12L415,174s8.26-9.11,8.26-16.75-12.39-19.43-12.75-19.79-6.68-5-11.17,2.18S396.39,136.34,396.39,136.34Z" transform="translate(-8.73 -20.98)" fill="#3780b6"/><path d="M396.39,136.34s4.22-9.49,14.31-7.54,20.53,20.77,16.64,30.6a101.28,101.28,0,0,1-8.74,17.12L415,174s8.26-9.11,8.26-16.75-12.39-19.43-12.75-19.79-6.68-5-11.17,2.18S396.39,136.34,396.39,136.34Z" transform="translate(-8.73 -20.98)" opacity="0.37" fill="url(#linear-gradient-3)"/><path d="M441.82,113.77c-1.34.53-2.95,1.26-3.09,2.7A3.2,3.2,0,0,0,439,118a27.88,27.88,0,0,0,3.17,5.11c3.39,4.93,5.68,10.51,8.49,15.79a1.74,1.74,0,0,0,.65.79,1.65,1.65,0,0,0,1,.08c3-.42,5.72-2.17,8.31-3.82q10.16-6.5,20.83-12.09a13.75,13.75,0,0,0,5-3.69c1.5-2.06,1.71-4.78,1.67-7.34A31.05,31.05,0,0,0,486.36,102a17.23,17.23,0,0,0-6.67-8.45c-2.29-1.44-5-4.24-7.73-2.79s-5,4-7.22,5.92c-4.63,4.15-9.06,8.55-14.14,12.15A41.75,41.75,0,0,1,441.82,113.77Z" transform="translate(-8.73 -20.98)" fill="#3780b6"/><path d="M436.09,120a1.64,1.64,0,0,0-.84.82,1.4,1.4,0,0,0,.1.9c.57,1.49,1.77,2.62,2.67,3.93a22.5,22.5,0,0,1,1.74,3.34c1.59,3.49,3.24,7,5,10.38a.86.86,0,0,0,1.48.34,18.16,18.16,0,0,0,4-3.11,1.16,1.16,0,0,0,.3-.43,1.2,1.2,0,0,0-.06-.65,21.71,21.71,0,0,0-2-4.24,96.68,96.68,0,0,0-5.65-8.66c-.85-1.2-1.79-3.12-3-4S437.08,119.47,436.09,120Z" transform="translate(-8.73 -20.98)" fill="#fff"/><path d="M405.67,142.89a5.11,5.11,0,0,1-2.07-2.39,3.53,3.53,0,0,1,.2-3.09,5.52,5.52,0,0,1,1.48-1.49,39.76,39.76,0,0,1,5.23-3.36,13.16,13.16,0,0,1,3.06-1.26,15.62,15.62,0,0,1,3.13-.33,5.39,5.39,0,0,1,2.71.38,2.76,2.76,0,0,1,1.3,3.26,6.15,6.15,0,0,1-2.54,2.64c-2.36,1.73-4.35,3.92-6.74,5.62A5,5,0,0,1,405.67,142.89Z" transform="translate(-8.73 -20.98)" fill="url(#linear-gradient-4)"/><path d="M409.47,149a5,5,0,0,1-2.06-2.39,3.56,3.56,0,0,1,.19-3.09,5.86,5.86,0,0,1,1.49-1.49,39.76,39.76,0,0,1,5.23-3.36,13.09,13.09,0,0,1,3.05-1.26,15.79,15.79,0,0,1,3.14-.33,5.4,5.4,0,0,1,2.71.38,2.78,2.78,0,0,1,1.3,3.26A6.17,6.17,0,0,1,422,143.4c-2.36,1.73-4.35,3.92-6.74,5.62A5,5,0,0,1,409.47,149Z" transform="translate(-8.73 -20.98)" fill="url(#linear-gradient-5)"/><path d="M413.9,154.38a5,5,0,0,1-2.06-2.39,3.56,3.56,0,0,1,.19-3.09,5.67,5.67,0,0,1,1.49-1.48,38.83,38.83,0,0,1,5.23-3.37,13.09,13.09,0,0,1,3.05-1.26,15.07,15.07,0,0,1,3.14-.32,5.29,5.29,0,0,1,2.71.37,2.79,2.79,0,0,1,1.3,3.27,6.24,6.24,0,0,1-2.54,2.63c-2.37,1.73-4.36,3.92-6.75,5.62A5,5,0,0,1,413.9,154.38Z" transform="translate(-8.73 -20.98)" fill="url(#linear-gradient-6)"/><path d="M419,159.29a5,5,0,0,1-2.06-2.38,3.59,3.59,0,0,1,.19-3.1,6,6,0,0,1,1.48-1.48,39.5,39.5,0,0,1,5.24-3.36,13.12,13.12,0,0,1,3-1.27,16.48,16.48,0,0,1,3.14-.32,5.51,5.51,0,0,1,2.71.37,2.79,2.79,0,0,1,1.3,3.27,6.17,6.17,0,0,1-2.55,2.64c-2.36,1.73-4.35,3.92-6.74,5.62A4.94,4.94,0,0,1,419,159.29Z" transform="translate(-8.73 -20.98)" fill="url(#linear-gradient-7)"/><path d="M421.15,120.58a6.31,6.31,0,0,0-2.12.23,6.8,6.8,0,0,0-2.61,2l-5.72,6a7.81,7.81,0,0,0-1.52,2,7.61,7.61,0,0,0-.56,2.84c-.17,2.55-.25,5.11-.25,7.66a1.5,1.5,0,0,0,.26,1,1.31,1.31,0,0,0,1.11.3,6.48,6.48,0,0,0,5.45-4.7,9.9,9.9,0,0,1,.77-2.4,6.15,6.15,0,0,1,2.8-2.09,1.42,1.42,0,0,1,.56-.18,1.48,1.48,0,0,1,.84.3c1.68,1,3.37,2,5.13,2.86a14.52,14.52,0,0,0,7,1.86,14.28,14.28,0,0,0,7.74-3,6.66,6.66,0,0,0,2.34-5.07c-.11-2.62-2.08-4.74-3.93-6.6-.85-.85-1.59-2-2.84-2.15-1.59-.13-3.23,0-4.84-.12C427.56,121.06,424.36,120.58,421.15,120.58Z" transform="translate(-8.73 -20.98)" fill="url(#linear-gradient-8)"/><polygon points="348.45 124.58 352.33 128.71 367.87 179.21 368.36 183.58 417.16 162.7 412.3 157.84 388.02 111.96 388.51 108.8 348.45 124.58" fill="#3780b6"/><path d="M346,170.57a11.29,11.29,0,0,1-11.32,11.28,10.39,10.39,0,0,1-2.07-.21l4.94-22A11.25,11.25,0,0,1,346,170.57Z" transform="translate(-8.73 -20.98)" fill="#3780b6"/><path d="M366.93,146.7l29.74-13.6L421,178.83l-8.33,3.07L400,158.9a26.49,26.49,0,0,0-28.82-13.13Z" transform="translate(-8.73 -20.98)" opacity="0.37" fill="url(#linear-gradient-9)"/><ellipse cx="334.96" cy="170.57" rx="11.27" ry="3.16" transform="translate(91.49 443.16) rotate(-78.34)" fill="#3780b6"/><ellipse cx="334.96" cy="170.57" rx="11.27" ry="3.16" transform="translate(91.49 443.16) rotate(-78.34)" opacity="0.37" fill="url(#linear-gradient-10)"/><polygon points="352.33 128.71 382.88 114.76 383.97 110.87 348.45 124.58 352.33 128.71" fill="url(#linear-gradient-11)"/><path d="M330.63,164.6h-.07l-.53,0a.57.57,0,0,1-.54-.61.55.55,0,0,1,.61-.54l.59,0a.58.58,0,0,1-.06,1.15Z" transform="translate(-8.73 -20.98)" fill="#3780b6"/><path d="M268.46,239.2h0a.59.59,0,0,1-.57-.59l0-1.15a.57.57,0,0,1,.57-.56h0a.58.58,0,0,1,.56.6l0,1.14A.58.58,0,0,1,268.46,239.2Zm.49-9.1h-.05a.57.57,0,0,1-.52-.63l.1-1.14a.56.56,0,0,1,.63-.52.57.57,0,0,1,.52.63l-.11,1.13A.57.57,0,0,1,269,230.1Zm1.09-9H270a.58.58,0,0,1-.48-.66l.19-1.13a.57.57,0,0,1,.66-.48.58.58,0,0,1,.47.67l-.18,1.12A.58.58,0,0,1,270,221.06Zm1.8-8.94h-.14a.58.58,0,0,1-.42-.7c.09-.38.19-.75.28-1.11a.6.6,0,0,1,.71-.42.58.58,0,0,1,.41.71c-.09.36-.19.73-.28,1.1A.57.57,0,0,1,271.84,212.12Zm2.64-8.71a.45.45,0,0,1-.2,0,.58.58,0,0,1-.35-.74l.4-1.07a.58.58,0,0,1,.75-.34.57.57,0,0,1,.33.74L275,203A.59.59,0,0,1,274.48,203.41Zm3.61-8.36a.54.54,0,0,1-.27-.07.56.56,0,0,1-.24-.77l.53-1a.58.58,0,0,1,1,.54l-.53,1A.58.58,0,0,1,278.09,195.05Zm4.7-7.8a.58.58,0,0,1-.33-.1.59.59,0,0,1-.14-.81l.68-.93a.58.58,0,0,1,.93.69l-.67.91A.57.57,0,0,1,282.79,187.25Zm5.86-7a.58.58,0,0,1-.41-1c.27-.28.55-.54.82-.81a.59.59,0,0,1,.82,0,.58.58,0,0,1,0,.82l-.81.79A.54.54,0,0,1,288.65,180.28Zm7-5.87a.61.61,0,0,1-.48-.25.58.58,0,0,1,.15-.8l.94-.65a.59.59,0,0,1,.81.15.6.6,0,0,1-.16.81l-.93.63A.59.59,0,0,1,295.61,174.41Zm7.87-4.58a.58.58,0,0,1-.24-1.1l1.05-.48a.58.58,0,1,1,.46,1.06l-1,.47A.7.7,0,0,1,303.48,169.83Zm8.54-3.18a.56.56,0,0,1-.55-.42.57.57,0,0,1,.4-.71q.56-.17,1.11-.3a.56.56,0,0,1,.7.41.58.58,0,0,1-.41.71l-1.09.29A.41.41,0,0,1,312,166.65Zm9-1.78a.58.58,0,0,1-.07-1.15l1.15-.12a.57.57,0,1,1,.11,1.14l-1.12.13Z" transform="translate(-8.73 -20.98)" fill="#3780b6"/><path d="M268.47,247.92a.58.58,0,0,1-.58-.56v-.59a.58.58,0,0,1,.57-.58h0a.58.58,0,0,1,.58.56v.58a.57.57,0,0,1-.56.59Z" transform="translate(-8.73 -20.98)" fill="#3780b6"/><path d="M331.87,170.51s.11,0-.57,0a.6.6,0,0,1-.58-.59.66.66,0,0,1,.59-.58c.39,0,.6,0,.6,0a.57.57,0,0,1,.54.61A.58.58,0,0,1,331.87,170.51Z" transform="translate(-8.73 -20.98)" fill="#3780b6"/><path d="M281.55,237.74h0a.57.57,0,0,1-.55-.61L281,236a.55.55,0,0,1,.62-.54.59.59,0,0,1,.55.62l-.08,1.15A.57.57,0,0,1,281.55,237.74Zm.83-9.2h-.07a.58.58,0,0,1-.51-.65l.15-1.16a.59.59,0,0,1,1.16.16L283,228A.58.58,0,0,1,282.38,228.54Zm1.47-9.13h-.11a.58.58,0,0,1-.46-.69l.24-1.13a.56.56,0,0,1,.69-.45.59.59,0,0,1,.45.69l-.23,1.12A.59.59,0,0,1,283.85,219.41Zm2.24-9a.45.45,0,0,1-.16,0,.59.59,0,0,1-.4-.72l.35-1.12a.58.58,0,0,1,.73-.38.58.58,0,0,1,.38.73l-.34,1.1A.59.59,0,0,1,286.09,210.45Zm3.16-8.69a.46.46,0,0,1-.23,0,.57.57,0,0,1-.31-.76l.48-1.07a.57.57,0,0,1,.77-.29.59.59,0,0,1,.29.77l-.47,1A.57.57,0,0,1,289.25,201.76Zm4.24-8.21a.59.59,0,0,1-.31-.09.58.58,0,0,1-.19-.8c.2-.33.41-.66.62-1a.57.57,0,0,1,.8-.18.58.58,0,0,1,.18.8c-.2.32-.41.64-.61,1A.58.58,0,0,1,293.49,193.55Zm5.45-7.45a.59.59,0,0,1-.38-.14.58.58,0,0,1-.06-.82l.78-.88a.58.58,0,0,1,.82,0,.57.57,0,0,1,0,.82c-.25.28-.51.56-.76.85A.6.6,0,0,1,298.94,186.1Zm6.71-6.35a.55.55,0,0,1-.46-.22.58.58,0,0,1,.1-.82l.93-.71a.6.6,0,0,1,.82.13.58.58,0,0,1-.13.81l-.91.69A.57.57,0,0,1,305.65,179.75Zm7.83-4.88a.58.58,0,0,1-.25-1.11l1.06-.5a.58.58,0,1,1,.48,1.06l-1,.49A.58.58,0,0,1,313.48,174.87Zm8.68-3.17a.58.58,0,0,1-.14-1.15l1.15-.27a.57.57,0,0,1,.69.45.58.58,0,0,1-.45.69l-1.11.26Z" transform="translate(-8.73 -20.98)" fill="#3780b6"/><path d="M281.26,246.55h0a.57.57,0,0,1-.57-.59v-.59a.59.59,0,0,1,.59-.57h0a.58.58,0,0,1,.57.59V246A.58.58,0,0,1,281.26,246.55Z" transform="translate(-8.73 -20.98)" fill="#3780b6"/><path d="M331.87,179.17h-.49a.5.5,0,0,1,0-1h0l.52,0a.5.5,0,0,1,0,1Z" transform="translate(-8.73 -20.98)" fill="#3780b6"/><path d="M295,247.86h0a.52.52,0,0,1-.48-.52l0-1a.45.45,0,0,1,.52-.47.5.5,0,0,1,.48.52l0,1A.5.5,0,0,1,295,247.86Zm.42-7.69h0a.5.5,0,0,1-.46-.54l.08-1a.47.47,0,0,1,.53-.46.5.5,0,0,1,.46.54l-.07,1A.5.5,0,0,1,295.43,240.17Zm.73-7.66h-.06a.49.49,0,0,1-.43-.55l.11-1a.5.5,0,0,1,1,.12l-.11,1A.51.51,0,0,1,296.16,232.51Zm1.1-7.62h-.09a.49.49,0,0,1-.4-.58l.17-1a.49.49,0,0,1,.57-.4.51.51,0,0,1,.41.58l-.17.95A.49.49,0,0,1,297.26,224.89Zm1.53-7.54-.11,0a.49.49,0,0,1-.37-.6l.22-.94a.51.51,0,0,1,.61-.36.49.49,0,0,1,.36.6l-.22.94A.51.51,0,0,1,298.79,217.35Zm2.06-7.42a.39.39,0,0,1-.15,0,.49.49,0,0,1-.32-.63l.3-.92a.49.49,0,0,1,.63-.31.51.51,0,0,1,.32.63c-.11.3-.2.6-.3.91A.5.5,0,0,1,300.85,209.93Zm2.72-7.19a.46.46,0,0,1-.2-.05.49.49,0,0,1-.26-.65l.39-.89a.5.5,0,0,1,.91.41l-.39.87A.5.5,0,0,1,303.57,202.74Zm3.51-6.85a.48.48,0,0,1-.26-.07.5.5,0,0,1-.17-.68l.51-.83a.5.5,0,0,1,.85.53c-.17.27-.34.54-.5.81A.5.5,0,0,1,307.08,195.89Zm4.49-6.23a.46.46,0,0,1-.33-.13.49.49,0,0,1-.05-.7l.65-.73a.5.5,0,1,1,.73.67q-.31.34-.63.72A.5.5,0,0,1,311.57,189.66Zm5.6-5.26a.51.51,0,0,1-.4-.2.5.5,0,0,1,.11-.7l.79-.57a.5.5,0,0,1,.57.82l-.77.55A.47.47,0,0,1,317.17,184.4Zm6.71-3.72a.5.5,0,0,1-.17-1l.92-.33a.5.5,0,0,1,.32.94l-.89.33Z" transform="translate(-8.73 -20.98)" fill="#3780b6"/><path d="M294.86,255.21h0a.5.5,0,0,1-.49-.51v-.5a.5.5,0,0,1,.5-.49h0a.5.5,0,0,1,.5.5v.5A.49.49,0,0,1,294.86,255.21Z" transform="translate(-8.73 -20.98)" fill="#3780b6"/><ellipse cx="270.26" cy="369.61" rx="112.66" ry="15.05" fill="url(#linear-gradient-12)"/><path d="M262,255.14c4-4.86,9.1-9,15.13-10.73,7-2,14.41-.68,21.64-1.25A47.53,47.53,0,0,1,291.26,260a25.23,25.23,0,0,1-6.77,6.89c-7.05,4.54-16.17,3.37-24.55,2.93-2.2-.12-4.67-.07-6.21,1.5-.68.7-3.45,2.8-3.08.47.12-.74,2.83-3.22,3.32-4.13A80,80,0,0,1,262,255.14Z" transform="translate(-8.73 -20.98)" fill="#3780b6"/><path d="M244.54,252.07a23.87,23.87,0,0,0-16.19-12.15c-5.06-1-10.32-.35-15.43-1.12,4.21,7.47,6.41,16.72,13.52,21.5,6.19,4.16,14.48,3.73,20.38,8.38,1.65,1.3,2.89,3.45,3.71.35.45-1.68-.31-2.91-1-4.34C247.51,260.63,246.65,256.1,244.54,252.07Z" transform="translate(-8.73 -20.98)" fill="#3780b6"/><path d="M262,255.14c4-4.86,9.1-9,15.13-10.73,7-2,14.41-.68,21.64-1.25A47.53,47.53,0,0,1,291.26,260a25.23,25.23,0,0,1-6.77,6.89c-7.05,4.54-16.17,3.37-24.55,2.93-2.2-.12-4.67-.07-6.21,1.5-.68.7-3.45,2.8-3.08.47.12-.74,2.83-3.22,3.32-4.13A80,80,0,0,1,262,255.14Z" transform="translate(-8.73 -20.98)" opacity="0.37" fill="url(#linear-gradient-13)"/><path d="M244.54,252.07a23.87,23.87,0,0,0-16.19-12.15c-5.06-1-10.32-.35-15.43-1.12,4.21,7.47,6.41,16.72,13.52,21.5,6.19,4.16,14.48,3.73,20.38,8.38,1.65,1.3,2.89,3.45,3.71.35.45-1.68-.31-2.91-1-4.34C247.51,260.63,246.65,256.1,244.54,252.07Z" transform="translate(-8.73 -20.98)" opacity="0.37" fill="url(#linear-gradient-14)"/><path d="M258.7,325.68c3.33-5.48,7.92-10.38,13.77-13,6.76-3,14.48-2.73,21.7-4.34A48.33,48.33,0,0,1,289,326.48a25.92,25.92,0,0,1-5.86,7.92c-6.49,5.6-15.87,5.7-24.41,6.44-2.24.2-4.73.6-6.07,2.4-.59.8-3.08,3.31-3,.91,0-.77,2.4-3.66,2.77-4.64A81,81,0,0,1,258.7,325.68Z" transform="translate(-8.73 -20.98)" fill="#3780b6"/><path d="M243.37,329.43A24.38,24.38,0,0,0,225,319.89c-5.26-.18-10.45,1.37-15.72,1.44,5.48,6.82,9.23,15.77,17.19,19.4,6.92,3.16,15.2,1.35,21.92,5,1.87,1,3.48,3,3.79-.26.17-1.77-.8-2.88-1.74-4.2C247.78,337.55,246.16,333.14,243.37,329.43Z" transform="translate(-8.73 -20.98)" fill="#3780b6"/><path d="M258.7,325.68c3.33-5.48,7.92-10.38,13.77-13,6.76-3,14.48-2.73,21.7-4.34A48.33,48.33,0,0,1,289,326.48a25.92,25.92,0,0,1-5.86,7.92c-6.49,5.6-15.87,5.7-24.41,6.44-2.24.2-4.73.6-6.07,2.4-.59.8-3.08,3.31-3,.91,0-.77,2.4-3.66,2.77-4.64A81,81,0,0,1,258.7,325.68Z" transform="translate(-8.73 -20.98)" opacity="0.37" fill="url(#linear-gradient-15)"/><path d="M243.37,329.43A24.38,24.38,0,0,0,225,319.89c-5.26-.18-10.45,1.37-15.72,1.44,5.48,6.82,9.23,15.77,17.19,19.4,6.92,3.16,15.2,1.35,21.92,5,1.87,1,3.48,3,3.79-.26.17-1.77-.8-2.88-1.74-4.2C247.78,337.55,246.16,333.14,243.37,329.43Z" transform="translate(-8.73 -20.98)" opacity="0.37" fill="url(#linear-gradient-16)"/><rect x="240" y="206.94" width="4.86" height="153.77" fill="#3780b6"/><rect x="240" y="206.94" width="4.86" height="153.77" opacity="0.37" fill="url(#linear-gradient-17)"/><circle cx="241.21" cy="182.46" r="30.99" fill="#f8c244"/><circle cx="241.21" cy="182.46" r="26.41" fill="#e8a825"/><path d="M247.52,220.08v-4.24a12.14,12.14,0,0,1-6.41-1.84l1-2.81a11.15,11.15,0,0,0,6,1.8c3,0,5-1.71,5-4.1s-1.63-3.73-4.73-5c-4.28-1.68-6.92-3.61-6.92-7.25,0-3.48,2.47-6.12,6.33-6.75v-4.23h2.6v4.06a11.31,11.31,0,0,1,5.45,1.47L254.81,194a10.06,10.06,0,0,0-5.28-1.43c-3.23,0-4.44,1.93-4.44,3.6,0,2.18,1.55,3.27,5.19,4.78,4.32,1.76,6.5,3.94,6.5,7.67,0,3.31-2.31,6.42-6.62,7.13v4.36Z" transform="translate(-8.73 -20.98)" fill="#f8c244"/><path d="M289.92,383.26c-8.14,4.48-22.52,7.45-38.94,7.45-15.76,0-29.66-2.76-37.94-6.94a45.94,45.94,0,0,1,76.88-.51Z" transform="translate(-8.73 -20.98)" fill="#3780b6"/><path d="M289.92,383.26c-8.14,4.48-22.52,7.45-38.94,7.45-15.76,0-29.66-2.76-37.94-6.94a45.94,45.94,0,0,1,76.88-.51Z" transform="translate(-8.73 -20.98)" opacity="0.37" fill="url(#linear-gradient-18)"/><path d="M342.06,299.44a20.09,20.09,0,0,1,9.68-6.86c4.46-1.29,9.23-.44,13.85-.81a30.54,30.54,0,0,1-4.79,10.81,16,16,0,0,1-4.33,4.4c-4.51,2.91-10.34,2.16-15.71,1.88-1.4-.08-3,0-4,1-.43.44-2.2,1.79-2,.3.08-.47,1.81-2.06,2.13-2.64A51.07,51.07,0,0,1,342.06,299.44Z" transform="translate(-8.73 -20.98)" fill="#3780b6"/><path d="M330.91,297.47a15.23,15.23,0,0,0-10.36-7.76c-3.23-.66-6.6-.23-9.86-.72,2.69,4.78,4.09,10.69,8.64,13.75,4,2.66,9.27,2.39,13,5.36,1.05.83,1.85,2.21,2.37.23a3.73,3.73,0,0,0-.65-2.78C332.81,303,332.26,300.05,330.91,297.47Z" transform="translate(-8.73 -20.98)" fill="#3780b6"/><path d="M342.06,299.44a20.09,20.09,0,0,1,9.68-6.86c4.46-1.29,9.23-.44,13.85-.81a30.54,30.54,0,0,1-4.79,10.81,16,16,0,0,1-4.33,4.4c-4.51,2.91-10.34,2.16-15.71,1.88-1.4-.08-3,0-4,1-.43.44-2.2,1.79-2,.3.08-.47,1.81-2.06,2.13-2.64A51.07,51.07,0,0,1,342.06,299.44Z" transform="translate(-8.73 -20.98)" opacity="0.37" fill="url(#linear-gradient-19)"/><path d="M330.91,297.47a15.23,15.23,0,0,0-10.36-7.76c-3.23-.66-6.6-.23-9.86-.72,2.69,4.78,4.09,10.69,8.64,13.75,4,2.66,9.27,2.39,13,5.36,1.05.83,1.85,2.21,2.37.23a3.73,3.73,0,0,0-.65-2.78C332.81,303,332.26,300.05,330.91,297.47Z" transform="translate(-8.73 -20.98)" opacity="0.37" fill="url(#linear-gradient-20)"/><path d="M340,344.57a20.53,20.53,0,0,1,8.81-8.31c4.33-1.93,9.26-1.75,13.89-2.77a31.14,31.14,0,0,1-3.31,11.59,16.64,16.64,0,0,1-3.75,5.07c-4.16,3.58-10.16,3.65-15.62,4.12-1.43.13-3,.38-3.88,1.54-.38.51-2,2.12-1.95.58,0-.49,1.54-2.34,1.77-3A52,52,0,0,1,340,344.57Z" transform="translate(-8.73 -20.98)" fill="#3780b6"/><path d="M330.16,347a15.57,15.57,0,0,0-11.72-6.1c-3.37-.12-6.69.87-10.06.92,3.51,4.36,5.91,10.09,11,12.41,4.43,2,9.72.86,14,3.23,1.2.66,2.23,1.92,2.43-.17a3.77,3.77,0,0,0-1.12-2.68C333,352.17,332,349.34,330.16,347Z" transform="translate(-8.73 -20.98)" fill="#3780b6"/><path d="M340,344.57a20.53,20.53,0,0,1,8.81-8.31c4.33-1.93,9.26-1.75,13.89-2.77a31.14,31.14,0,0,1-3.31,11.59,16.64,16.64,0,0,1-3.75,5.07c-4.16,3.58-10.16,3.65-15.62,4.12-1.43.13-3,.38-3.88,1.54-.38.51-2,2.12-1.95.58,0-.49,1.54-2.34,1.77-3A52,52,0,0,1,340,344.57Z" transform="translate(-8.73 -20.98)" opacity="0.37" fill="url(#linear-gradient-21)"/><path d="M330.16,347a15.57,15.57,0,0,0-11.72-6.1c-3.37-.12-6.69.87-10.06.92,3.51,4.36,5.91,10.09,11,12.41,4.43,2,9.72.86,14,3.23,1.2.66,2.23,1.92,2.43-.17a3.77,3.77,0,0,0-1.12-2.68C333,352.17,332,349.34,330.16,347Z" transform="translate(-8.73 -20.98)" opacity="0.37" fill="url(#linear-gradient-22)"/><rect x="324.86" y="261.04" width="3.11" height="98.38" fill="#3780b6"/><rect x="324.86" y="261.04" width="3.11" height="98.38" opacity="0.37" fill="url(#linear-gradient-23)"/><circle cx="325.64" cy="245.38" r="19.83" fill="#f8c244"/><circle cx="325.64" cy="245.38" r="16.9" fill="#e8a825"/><path d="M332.82,277V274.3a7.86,7.86,0,0,1-4.11-1.18l.65-1.8a7.08,7.08,0,0,0,3.86,1.16c1.9,0,3.19-1.1,3.19-2.63s-1.05-2.39-3-3.19c-2.73-1.07-4.42-2.31-4.42-4.64A4.39,4.39,0,0,1,333,257.7V255h1.66v2.6a7.23,7.23,0,0,1,3.48.94l-.67,1.77a6.49,6.49,0,0,0-3.38-.91c-2.06,0-2.84,1.24-2.84,2.31,0,1.39,1,2.09,3.33,3.05,2.76,1.13,4.15,2.52,4.15,4.91a4.66,4.66,0,0,1-4.23,4.56V277Z" transform="translate(-8.73 -20.98)" fill="#f8c244"/><path d="M360,381.41c-5.21,2.87-14.41,4.77-24.92,4.77-10.08,0-19-1.77-24.27-4.44a29.4,29.4,0,0,1,49.19-.33Z" transform="translate(-8.73 -20.98)" fill="#3780b6"/><path d="M360,381.41c-5.21,2.87-14.41,4.77-24.92,4.77-10.08,0-19-1.77-24.27-4.44a29.4,29.4,0,0,1,49.19-.33Z" transform="translate(-8.73 -20.98)" opacity="0.37" fill="url(#linear-gradient-24)"/></svg>
